<svg xmlns="http://www.w3.org/2000/svg" viewBox="0 0 32 32" width="32" height="32">
  <path fill="none" stroke="#00d4aa" stroke-width="2.5" stroke-linecap="round" stroke-linejoin="round" d="
    M 16 2 L 16 30
    M 2 16 L 30 16
    M 6.1 6.1 L 25.9 25.9
    M 6.1 25.9 L 25.9 6.1
    
    M 16 6 L 12 10
    M 16 6 L 20 10
    M 16 26 L 12 22
    M 16 26 L 20 22
    
    M 6 16 L 10 12
    M 6 16 L 10 20
    M 26 16 L 22 12
    M 26 16 L 22 20
    
    M 9 9 L 9 14
    M 9 9 L 14 9
    M 23 23 L 23 18
    M 23 23 L 18 23
    
    M 9 23 L 9 18
    M 9 23 L 14 23
    M 23 9 L 23 14
    M 23 9 L 18 9
  " />
  <circle cx="16" cy="16" r="3" fill="#00d4aa" />
</svg>
